<svg width="52" height="147" viewBox="0 0 52 147" fill="none" xmlns="http://www.w3.org/2000/svg">
<g opacity="0.8">
<path d="M51.2354 143.658C50.7433 143.204 50.0783 142.963 49.3958 142.992C46.8687 142.992 42.1979 142.227 40.4218 140.177C39.6378 139.291 38.9625 138.322 38.4093 137.289C38.2879 137.039 37.9781 136.93 37.7173 137.047C37.7107 137.05 37.7043 137.053 37.6979 137.056C36.3026 137.671 34.7858 137.993 33.25 137.999C31.7139 137.991 30.1972 137.669 28.801 137.055C28.5449 136.929 28.2311 137.026 28.1 137.272C28.0292 137.404 28.0238 137.56 28.0854 137.697C28.2083 137.971 27.9385 138.572 27.677 139.153C27.2889 139.881 27.0586 140.678 27 141.494C27.0207 142.537 27.1961 143.573 27.5209 144.569V146.487C27.5209 146.763 27.7541 146.986 28.0417 146.986H34.8125C35.1002 146.986 35.3334 146.763 35.3334 146.487V145.926C37.1269 146.714 39.0918 147.078 41.0625 146.986H47.3125C48.8309 146.905 50.3198 146.551 51.701 145.941C51.8837 145.858 52.0003 145.682 52 145.488C51.9836 144.81 51.7121 144.16 51.2354 143.658Z" fill="#90A4AE"/>
<path d="M37.9375 140.994C37.6499 140.995 37.4163 140.772 37.4157 140.496C37.4155 140.363 37.4706 140.236 37.5688 140.142L38.6104 139.143C38.8102 138.945 39.14 138.939 39.3469 139.131C39.5538 139.322 39.5595 139.638 39.3597 139.837C39.3555 139.841 39.3512 139.845 39.3469 139.849L38.3052 140.848C38.2078 140.941 38.0755 140.994 37.9375 140.994Z" fill="#FFC107"/>
<path d="M40.0209 142.992C39.7332 142.992 39.4996 142.769 39.4991 142.493C39.4988 142.36 39.5539 142.233 39.6521 142.139L40.6938 141.14C40.9006 140.949 41.2304 140.954 41.4302 141.153C41.6252 141.346 41.6252 141.653 41.4302 141.846L40.3886 142.845C40.2911 142.939 40.1588 142.991 40.0209 142.992Z" fill="#FFC107"/>
</g>
<path opacity="0.7" d="M38.44 52.7918L45.3878 51.9387L48.983 81.2188C49.2186 83.1374 47.8542 84.8837 45.9356 85.1193V85.1193C44.017 85.3548 42.2707 83.9905 42.0352 82.0719L38.44 52.7918Z" fill="#F5F0BE"/>
<path d="M36.2488 79H13.7512C13.0609 79 12.5013 79.5597 12.5013 80.25V85.2501C12.5013 85.9403 13.0609 86.5 13.7512 86.5C14.4415 86.5 15.0011 85.9403 15.0011 85.25H34.999C34.9989 85.9403 35.5585 86.5 36.2488 86.5C36.9391 86.5 37.4987 85.9403 37.4987 85.25V80.25C37.4987 79.5597 36.9391 79 36.2488 79Z" fill="#455A64"/>
<path d="M20.0005 79H17.5008V86.5H20.0005V79Z" fill="#546E7A"/>
<path d="M32.4992 79H29.9995V86.5H32.4992V79Z" fill="#546E7A"/>
<path d="M37.8711 95.1625C37.8361 94.4731 37.249 93.9425 36.5595 93.9774C36.53 93.9789 36.5006 93.9814 36.4712 93.985C35.8453 94.0371 35.2289 93.808 34.7889 93.36C33.3625 91.8348 32.5473 89.8379 32.4992 87.75V85.25C32.4992 84.5596 31.9396 83.9999 31.2493 83.9999H18.7507C18.0604 83.9999 17.5008 84.5596 17.5008 85.25V87.7499C17.4517 89.8279 16.6445 91.8161 15.231 93.3399C14.7834 93.7987 14.1552 94.035 13.5161 93.9849C13.1731 93.9408 12.8274 94.0454 12.5662 94.2723C12.303 94.4956 12.1438 94.8176 12.1262 95.1624L10.0016 137.687C9.96704 138.377 10.498 138.964 11.1874 138.998C11.2087 139 11.2301 139 11.2515 139H22.5003C23.1705 139.001 23.722 138.472 23.7502 137.802L25 109.125V109.052L26.2499 137.802C26.278 138.472 26.8294 139.001 27.4998 139H38.7486C39.4389 139.001 39.9992 138.442 40 137.752C40 137.73 39.9995 137.709 39.9985 137.687L37.8711 95.1625Z" fill="#CFD8DC"/>
<path d="M18.7507 84.0009H13.7512C13.0609 84.0009 12.5013 84.5606 12.5013 85.251V87.6885L12.1263 95.1635C12.0943 95.8208 12.5774 96.3904 13.2312 96.466C13.3971 96.4858 13.5641 96.4959 13.7312 96.496C14.9104 96.4756 16.0394 96.0145 16.8958 95.2036C18.8511 93.2116 19.9632 90.5423 20.0005 87.751V85.2508C20.0005 84.5605 19.441 84.0009 18.7507 84.0009Z" fill="#90A4AE"/>
<path d="M37.4987 87.75V85.25C37.4987 84.5596 36.9391 83.9999 36.2488 83.9999H31.2493C30.559 83.9999 29.9994 84.5596 29.9994 85.25V87.7499C30.0535 90.5528 31.1757 93.2291 33.1365 95.2325C33.9806 96.0265 35.0899 96.4784 36.2487 96.5C36.4242 96.5 36.5995 96.4892 36.7736 96.4675C37.4233 96.3871 37.9009 95.819 37.8685 95.165L37.4987 87.75Z" fill="#90A4AE"/>
<path d="M25 97.75C24.3097 97.75 23.7501 97.1903 23.7501 96.5C23.7501 96.0689 23.9721 95.6684 24.3375 95.44C25.3073 94.8325 25.6223 90.1475 25.0099 85.41C24.9216 84.7225 25.4073 84.0934 26.0949 84.0051C26.7823 83.9167 27.4113 84.4025 27.4997 85.0901C27.8171 87.5477 28.6221 95.7152 25.6723 97.5602C25.4713 97.6867 25.2377 97.7527 25 97.75Z" fill="#90A4AE"/>
<path opacity="0.7" d="M6.62393 51.9464L13.5176 53.162L8.39497 82.2138C8.0593 84.1174 6.244 85.3885 4.34037 85.0529V85.0529C2.43674 84.7172 1.16565 82.9019 1.50131 80.9983L6.62393 51.9464Z" fill="#F5F0BE"/>
<path d="M34.2354 143.658C33.7433 143.204 33.0783 142.963 32.3958 142.992C29.8687 142.992 25.1979 142.227 23.4218 140.177C22.6378 139.291 21.9625 138.322 21.4093 137.289C21.2879 137.039 20.9781 136.93 20.7173 137.047C20.7108 137.05 20.7043 137.053 20.6979 137.056C19.3026 137.671 17.7858 137.993 16.25 137.999C14.7139 137.991 13.1972 137.669 11.801 137.055C11.5449 136.929 11.2311 137.026 11.1 137.272C11.0292 137.404 11.0238 137.56 11.0854 137.697C11.2083 137.971 10.9385 138.572 10.677 139.153C10.2889 139.881 10.0586 140.678 10 141.494C10.0207 142.537 10.1961 143.573 10.5209 144.569V146.487C10.5209 146.763 10.7541 146.986 11.0417 146.986H17.8125C18.1002 146.986 18.3334 146.763 18.3334 146.487V145.926C20.1269 146.714 22.0918 147.078 24.0625 146.986H30.3125C31.8309 146.905 33.3198 146.551 34.701 145.941C34.8837 145.858 35.0003 145.682 35 145.488C34.9836 144.81 34.7121 144.16 34.2354 143.658Z" fill="#90A4AE"/>
<path d="M20.9375 140.994C20.6499 140.995 20.4163 140.772 20.4157 140.496C20.4155 140.363 20.4706 140.236 20.5688 140.142L21.6104 139.143C21.8102 138.945 22.14 138.939 22.3469 139.131C22.5538 139.322 22.5595 139.638 22.3597 139.837C22.3555 139.841 22.3512 139.845 22.3469 139.849L21.3052 140.848C21.2078 140.941 21.0755 140.994 20.9375 140.994Z" fill="#FFC107"/>
<path d="M23.0209 142.992C22.7332 142.992 22.4996 142.769 22.4991 142.493C22.4988 142.36 22.5539 142.233 22.6521 142.139L23.6938 141.14C23.9006 140.949 24.2304 140.954 24.4302 141.153C24.6252 141.346 24.6252 141.653 24.4302 141.846L23.3886 142.845C23.2911 142.939 23.1588 142.991 23.0209 142.992Z" fill="#FFC107"/>
<path d="M43.373 41.555C42.8732 38.9135 40.6288 36.8765 37.8142 36.51L32.1176 35.75H18.6944L13.1912 36.5C10.3782 36.8641 8.13374 38.8981 7.63233 41.5375C6.54438 47.0875 3.00001 65.75 3.00001 73.25C3.00001 73.9404 3.59262 74.5 4.32358 74.5H9.50384L8.29418 88.145C8.24032 88.7482 8.65178 89.3011 9.27094 89.4575C14.5768 90.8163 20.0138 91.6681 25.5 92C30.9845 91.6678 36.4196 90.8159 41.7239 89.4575C42.343 89.3011 42.7545 88.7482 42.7006 88.145L41.4962 74.5H46.6764C47.4074 74.5 48 73.9404 48 73.25C48 65.75 44.4556 47.0875 43.373 41.555Z" fill="#CFD8DC"/>
<path d="M10.9412 74.5H10.7983C10.0712 74.4297 9.54195 73.816 9.6164 73.1293C9.61677 73.1254 9.61727 73.1214 9.61776 73.1176L12.2648 49.3675C12.3263 48.6935 12.9548 48.1941 13.6685 48.2523C13.686 48.2537 13.7034 48.2554 13.7208 48.2575C14.4485 48.3228 14.9823 48.9329 14.9133 49.6201C14.9129 49.6242 14.9124 49.6284 14.9119 49.6325L12.2649 73.3825C12.1927 74.0206 11.6207 74.5037 10.9412 74.5Z" fill="#B0BEC5"/>
<path d="M40.0588 74.4999C39.3794 74.5036 38.8073 74.0206 38.7352 73.3824L36.0882 49.6324C36.011 48.9463 36.537 48.3308 37.2635 48.2574C37.9774 48.1746 38.6273 48.654 38.715 49.3283C38.7168 49.3413 38.7182 49.3544 38.7195 49.3674L41.3665 73.1175C41.4437 73.8036 40.9177 74.4191 40.1912 74.4924L40.0588 74.4999Z" fill="#B0BEC5"/>
<path d="M30.7942 77C30.0632 76.9993 29.4713 76.439 29.4721 75.7487C29.4727 75.1759 29.8855 74.6768 30.4739 74.5376L35.7681 73.2875C36.4778 73.1204 37.1966 73.5284 37.3736 74.1988C37.5505 74.8691 37.1185 75.5479 36.4087 75.7151L31.1145 76.9651C31.0094 76.9886 30.902 77.0004 30.7942 77Z" fill="#90A4AE"/>
<path d="M30.495 33.5C29.4706 32.465 28.8962 32 28.147 32H22.8529C22.2467 32 21.6379 32.2775 20.3196 33.7025C20.1048 33.9378 19.9889 34.2393 19.994 34.55C20.618 39.7931 21.6021 44.9925 22.9402 50.115C23.074 50.6496 23.5616 51.0391 24.1419 51.075H24.2267C24.778 51.075 25.2715 50.7522 25.4655 50.265C27.6394 45.1442 29.4323 39.8865 30.8312 34.53C30.8897 34.1564 30.7661 33.7777 30.495 33.5Z" fill="#607D8B"/>
<path d="M22.8794 53.2L22.853 53.25" stroke="black" stroke-linecap="round" stroke-linejoin="round"/>
<path d="M22.853 90.7499C22.122 90.7499 21.5294 90.1903 21.5294 89.4999V53.2499C21.5294 52.5596 22.122 51.9999 22.853 51.9999C23.5839 51.9999 24.1766 52.5596 24.1766 53.2499V89.4999C24.1764 90.1904 23.5839 90.7499 22.853 90.7499Z" fill="#90A4AE"/>
<path d="M17.5588 77C17.353 77 17.15 76.9546 16.9658 76.8675L14.3188 75.6174C13.6647 75.3089 13.3991 74.5578 13.7258 73.9399C14.0525 73.3221 14.8478 73.0713 15.5021 73.3798L18.1491 74.6299C18.804 74.9364 19.0719 75.6864 18.7473 76.305C18.5236 76.7315 18.0627 77.0009 17.5588 77Z" fill="#90A4AE"/>
<path d="M28.147 59.5C28.878 59.5 29.4706 58.9404 29.4706 58.25C29.4706 57.5596 28.878 57 28.147 57C27.416 57 26.8234 57.5596 26.8234 58.25C26.8234 58.9404 27.416 59.5 28.147 59.5Z" fill="#607D8B"/>
<path d="M28.147 67C28.878 67 29.4706 66.4404 29.4706 65.75C29.4706 65.0596 28.878 64.4999 28.147 64.4999C27.416 64.4999 26.8234 65.0596 26.8234 65.75C26.8234 66.4404 27.416 67 28.147 67Z" fill="#607D8B"/>
<path d="M25.5159 49.5375C24.2304 44.5857 23.2703 39.5636 22.6412 34.5C22.6272 33.8097 22.0233 33.2609 21.2924 33.2742C20.9214 33.281 20.5704 33.4345 20.325 33.6975C18.3158 35.8475 15.2956 39.855 15.1578 40.025C14.8097 40.4864 14.8336 41.1111 15.216 41.5475L23.2102 50.6225C23.4616 50.9091 23.8352 51.075 24.2293 51.075C24.9603 51.0741 25.5521 50.5139 25.5513 49.8235C25.5513 49.7272 25.5393 49.6312 25.5159 49.5375Z" fill="#90A4AE"/>
<path d="M35.8394 40.0225C35.7044 39.8425 32.4909 35.6176 30.5083 33.5225C30.0216 33.0075 29.185 32.9625 28.6395 33.4222C28.4067 33.6184 28.2549 33.8859 28.2106 34.1776C26.863 39.3642 25.1166 44.4511 22.9853 49.3975C22.2759 51.2075 21.7518 52.495 21.6458 52.745C21.3744 53.386 21.7047 54.1134 22.3835 54.3697C22.8986 54.5642 23.4877 54.4346 23.8588 54.045L35.7441 41.595C36.1655 41.1581 36.2054 40.5021 35.8394 40.0225Z" fill="#90A4AE"/>
<circle cx="25.5" cy="25.5" r="12.5" fill="#CCA087"/>
<path d="M25.7208 0C19.647 0 15.7208 3.6014 15.7208 9.17651V12C15.7206 12.3898 16.0002 12.7061 16.3453 12.7064C16.4162 12.7064 16.4865 12.6929 16.5533 12.6663C19.5533 11.4762 25.6783 11.2955 25.7058 11.2941C25.767 11.2941 31.8933 11.4748 34.8883 12.6663C35.2139 12.7958 35.5708 12.6026 35.6854 12.2349C35.7089 12.1594 35.7209 12.08 35.7208 12V9.17644C35.7208 3.60139 31.7946 0 25.7208 0Z" fill="#CFD8DC"/>
<path d="M35.3033 11.3337C32.1208 10.0631 25.9958 9.88944 25.7058 9.88235C25.4458 9.88944 19.3208 10.0687 16.1383 11.3337C15.888 11.4332 15.7206 11.7004 15.7209 12V13.9341C15.7209 14.282 15.9453 14.578 16.2496 14.6316C19.3813 15.2078 22.5479 15.508 25.7209 15.5295C28.8938 15.508 32.0604 15.2078 35.1921 14.6316C35.4965 14.578 35.7209 14.282 35.7209 13.9341V12C35.721 11.7003 35.5536 11.4331 35.3033 11.3337Z" fill="#37474F"/>
<path d="M38.2208 12.7059C37.6526 12.7544 37.0875 12.8407 36.5283 12.9643C36.0908 13.0433 35.5783 13.1379 34.9983 13.2367C31.9307 13.8017 28.8289 14.0962 25.7208 14.1176C22.6115 14.0961 19.5084 13.8017 16.4396 13.2367C15.8621 13.1379 15.3495 13.0433 14.9121 12.9643C14.3533 12.8408 13.7886 12.7545 13.2208 12.7059C12.1483 12.7059 10.7208 13.0715 10.7208 16.2353C10.7208 20.153 18.1508 24 25.7208 24C33.2908 24 40.7208 20.153 40.7208 16.2353C40.7208 13.0715 39.2933 12.7059 38.2208 12.7059Z" fill="#CFD8DC"/>
<path d="M33.6983 19.8828C33.402 19.4762 32.2208 18.9412 25.7208 18.9412C19.2208 18.9412 18.0396 19.4762 17.7433 19.8828C17.5031 20.1373 17.4123 20.5242 17.5096 20.8795C17.8821 22.3181 20.9521 23.1764 25.7209 23.1764C30.4896 23.1764 33.5596 22.3181 33.9309 20.8795C34.0284 20.5244 33.9381 20.1375 33.6983 19.8828Z" fill="#CFD8DC"/>
</svg>
