<svg width="52" height="158" viewBox="0 0 52 158" fill="none" xmlns="http://www.w3.org/2000/svg">
<path d="M4.0217 67L10.9695 67.8531L7.37438 97.1332C7.1388 99.0518 5.39251 100.416 3.47392 100.181C1.55533 99.945 0.190979 98.1987 0.426552 96.2801L4.0217 67Z" fill="#CCA087"/>
<path d="M40.44 67.7918L47.3878 66.9387L50.983 96.2188C51.2185 98.1374 49.8542 99.8837 47.9356 100.119C46.017 100.355 44.2707 98.9905 44.0351 97.0719L40.44 67.7918Z" fill="#CCA087"/>
<g opacity="0.7">
<path d="M48.6042 150.273C47.996 150.284 47.3926 150.376 46.8111 150.545C46.4604 150.65 46.0967 150.712 45.7292 150.727C45.1375 150.69 44.5579 150.551 44.0186 150.317L43.8173 150.226C43.5783 150.118 43.2924 150.215 43.1788 150.441C43.1057 150.587 43.1196 150.759 43.2155 150.893C43.2838 150.976 43.3248 151.076 43.3334 151.182C43.3334 152.222 41.9917 154.652 41.4809 155.5C41.3486 155.717 41.4271 155.995 41.6563 156.121C41.7291 156.161 41.8118 156.182 41.8959 156.182H42.1354C44.2507 156.181 46.3496 155.83 48.3378 155.145L49.9094 154.6C49.9729 154.578 50.0307 154.543 50.0791 154.498C50.6584 153.814 50.9823 152.968 51 152.091C51 151.187 50.1768 150.273 48.6042 150.273Z" fill="#546E7A"/>
<path d="M44.0042 150.376C43.2312 149.604 42.2909 148.999 41.248 148.604C40.397 148.248 39.6008 147.783 38.881 147.224C38.0348 146.422 38.1718 141.643 38.5398 138.505C38.5566 138.361 38.4992 138.217 38.3855 138.119C38.2725 138.02 38.116 137.979 37.9657 138.01C36.099 138.402 34.2121 138.703 32.3125 138.909H29.4375C29.1729 138.909 28.958 139.112 28.9577 139.363C28.9577 139.371 28.9579 139.38 28.9584 139.388C29.1194 142.253 29.2689 147.084 28.9881 147.843C28.943 147.956 28.9038 148.07 28.8616 148.192L28.8194 148.313C28.7374 148.552 28.8748 148.809 29.1264 148.887C29.1742 148.901 29.2242 148.909 29.2746 148.909H29.4318C30.908 149.48 32.2091 150.393 33.2153 151.566C34.1738 152.519 34.7032 153.788 34.6911 155.105C34.6692 155.339 34.8387 155.55 35.0821 155.593L37.4377 156.002C38.143 156.124 38.8587 156.185 39.5757 156.183H41.8958C42.067 156.183 42.2252 156.097 42.3108 155.956C42.514 155.621 44.2917 152.652 44.2917 151.182C44.2848 150.892 44.1845 150.611 44.0042 150.376Z" fill="#CFD8DC"/>
<path d="M33.6829 150.694C32.2426 149.202 30.1821 148 29.4375 148H29.2746C29.0665 148 28.8821 148.127 28.8184 148.315C28.3743 149.535 28.0992 150.804 28 152.091V154.818C28 155.069 28.2146 155.272 28.4792 155.272H32.2359C32.8944 155.271 33.5516 155.326 34.1995 155.438L35.0812 155.593C35.11 155.597 35.1391 155.6 35.1684 155.6C35.4174 155.601 35.6256 155.421 35.6476 155.185C35.6901 153.492 34.9765 151.861 33.6829 150.694Z" fill="#546E7A"/>
<path d="M37.5833 141.636H36.1458C35.8812 141.636 35.6667 141.433 35.6667 141.182C35.6667 140.931 35.8812 140.727 36.1458 140.727H37.5833C37.848 140.727 38.0625 140.931 38.0625 141.182C38.0625 141.433 37.848 141.636 37.5833 141.636Z" fill="#FAFAFA"/>
<path d="M37.5833 143.454H36.1458C35.8812 143.454 35.6667 143.251 35.6667 143C35.6667 142.749 35.8812 142.545 36.1458 142.545H37.5833C37.848 142.545 38.0625 142.749 38.0625 143C38.0625 143.251 37.848 143.454 37.5833 143.454Z" fill="#FAFAFA"/>
<path d="M37.5833 145.273H36.1458C35.8812 145.273 35.6667 145.069 35.6667 144.818C35.6667 144.567 35.8812 144.363 36.1458 144.363H37.5833C37.848 144.363 38.0625 144.567 38.0625 144.818C38.0625 145.069 37.848 145.273 37.5833 145.273Z" fill="#FAFAFA"/>
<path d="M36.625 147.545C36.3604 147.545 36.1463 147.341 36.1469 147.09C36.1474 146.895 36.2788 146.722 36.4736 146.66L37.9111 146.205C38.1588 146.117 38.4351 146.236 38.5283 146.471C38.6215 146.706 38.4962 146.968 38.2485 147.056C38.2371 147.06 38.2256 147.064 38.214 147.067L36.7765 147.522C36.7276 147.537 36.6765 147.545 36.625 147.545Z" fill="#FAFAFA"/>
<path d="M37.5833 149.363C37.3187 149.364 37.1038 149.161 37.1033 148.91C37.1031 148.789 37.1537 148.673 37.2441 148.587L38.2024 147.678C38.3927 147.504 38.6961 147.509 38.8799 147.689C39.0593 147.865 39.0593 148.145 38.8799 148.321L37.9216 149.23C37.832 149.315 37.7103 149.363 37.5833 149.363Z" fill="#FAFAFA"/>
<path d="M39.5 150.727C39.2354 150.727 39.021 150.523 39.0212 150.272C39.0212 150.223 39.0295 150.175 39.0458 150.129L39.5249 148.765C39.599 148.524 39.8651 148.386 40.1191 148.456C40.3732 148.526 40.5191 148.779 40.4449 149.02C40.4415 149.031 40.4377 149.042 40.4334 149.053L39.9543 150.416C39.8891 150.602 39.7062 150.727 39.5 150.727Z" fill="#FAFAFA"/>
<path d="M41.4167 151.636C41.1521 151.636 40.9377 151.432 40.9379 151.181C40.9379 151.133 40.9462 151.084 40.9624 151.038L41.4416 149.674C41.5157 149.433 41.7817 149.295 42.0358 149.365C42.2899 149.436 42.4357 149.688 42.3616 149.929C42.3582 149.94 42.3544 149.951 42.3501 149.962L41.8709 151.325C41.8058 151.511 41.6228 151.636 41.4167 151.636Z" fill="#FAFAFA"/>
<path d="M50.7968 153.537C50.6693 153.452 50.5058 153.431 50.3589 153.481L48.0091 154.291C46.1262 154.939 44.1386 155.271 42.1354 155.272H39.5767C38.9179 155.274 38.2603 155.219 37.6121 155.107L34.3739 154.545C33.6686 154.423 32.9529 154.362 32.2359 154.363H28.4792C28.2146 154.363 28 154.567 28 154.818V156.636C28 157.389 28.6436 158 29.4375 158H33.2708C33.5355 158 33.75 157.796 33.75 157.545V157.091H36.4238C36.7316 157.089 37.0271 157.205 37.2441 157.412C37.6412 157.79 38.1807 158.001 38.7429 158H42.8829C44.9304 158.012 46.9641 157.683 48.8917 157.028C49.6102 156.829 50.2798 156.496 50.861 156.049C50.9505 155.963 51.0005 155.848 51 155.727V153.909C51.0001 153.761 50.9243 153.622 50.7968 153.537Z" fill="#455A64"/>
</g>
<path d="M32.6042 150.273C31.996 150.284 31.3926 150.376 30.8111 150.545C30.4604 150.65 30.0967 150.712 29.7292 150.727C29.1375 150.69 28.5579 150.551 28.0186 150.317L27.8173 150.226C27.5783 150.118 27.2924 150.215 27.1788 150.441C27.1057 150.587 27.1196 150.759 27.2155 150.893C27.2838 150.976 27.3248 151.076 27.3334 151.182C27.3334 152.222 25.9917 154.652 25.4809 155.5C25.3486 155.717 25.4271 155.995 25.6563 156.121C25.7291 156.161 25.8118 156.182 25.8959 156.182H26.1354C28.2507 156.181 30.3496 155.83 32.3378 155.145L33.9094 154.6C33.9729 154.578 34.0307 154.543 34.0791 154.498C34.6584 153.814 34.9823 152.968 35 152.091C35 151.187 34.1768 150.273 32.6042 150.273Z" fill="#546E7A"/>
<path d="M28.0042 150.376C27.2312 149.604 26.2909 148.999 25.248 148.604C24.397 148.248 23.6008 147.783 22.881 147.224C22.0348 146.422 22.1718 141.643 22.5398 138.505C22.5566 138.361 22.4992 138.217 22.3855 138.119C22.2725 138.02 22.116 137.979 21.9657 138.01C20.099 138.402 18.2121 138.703 16.3125 138.909H13.4375C13.1729 138.909 12.958 139.112 12.9577 139.363C12.9577 139.371 12.9579 139.38 12.9584 139.388C13.1194 142.253 13.2689 147.084 12.9881 147.843C12.943 147.956 12.9038 148.07 12.8616 148.192L12.8194 148.313C12.7374 148.552 12.8748 148.809 13.1264 148.887C13.1742 148.901 13.2242 148.909 13.2746 148.909H13.4318C14.908 149.48 16.2091 150.393 17.2153 151.566C18.1738 152.519 18.7032 153.788 18.6911 155.105C18.6692 155.339 18.8387 155.55 19.0821 155.593L21.4377 156.002C22.143 156.124 22.8587 156.185 23.5757 156.183H25.8958C26.067 156.183 26.2252 156.097 26.3108 155.956C26.514 155.621 28.2917 152.652 28.2917 151.182C28.2848 150.892 28.1845 150.611 28.0042 150.376Z" fill="#CFD8DC"/>
<path d="M17.6829 150.694C16.2426 149.202 14.1821 148 13.4375 148H13.2746C13.0665 148 12.8821 148.127 12.8184 148.315C12.3743 149.535 12.0992 150.804 12 152.091V154.818C12 155.069 12.2146 155.272 12.4792 155.272H16.2359C16.8944 155.271 17.5516 155.326 18.1995 155.438L19.0812 155.593C19.11 155.597 19.1391 155.6 19.1684 155.6C19.4174 155.601 19.6256 155.421 19.6476 155.185C19.6901 153.492 18.9765 151.861 17.6829 150.694Z" fill="#546E7A"/>
<path d="M21.5833 141.636H20.1458C19.8812 141.636 19.6667 141.433 19.6667 141.182C19.6667 140.931 19.8812 140.727 20.1458 140.727H21.5833C21.848 140.727 22.0625 140.931 22.0625 141.182C22.0625 141.433 21.848 141.636 21.5833 141.636Z" fill="#FAFAFA"/>
<path d="M21.5833 143.454H20.1458C19.8812 143.454 19.6667 143.251 19.6667 143C19.6667 142.749 19.8812 142.545 20.1458 142.545H21.5833C21.848 142.545 22.0625 142.749 22.0625 143C22.0625 143.251 21.848 143.454 21.5833 143.454Z" fill="#FAFAFA"/>
<path d="M21.5833 145.273H20.1458C19.8812 145.273 19.6667 145.069 19.6667 144.818C19.6667 144.567 19.8812 144.363 20.1458 144.363H21.5833C21.848 144.363 22.0625 144.567 22.0625 144.818C22.0625 145.069 21.848 145.273 21.5833 145.273Z" fill="#FAFAFA"/>
<path d="M20.625 147.545C20.3604 147.545 20.1463 147.341 20.1469 147.09C20.1474 146.895 20.2788 146.722 20.4736 146.66L21.9111 146.205C22.1588 146.117 22.4351 146.236 22.5283 146.471C22.6215 146.706 22.4962 146.968 22.2485 147.056C22.2371 147.06 22.2256 147.064 22.214 147.067L20.7765 147.522C20.7276 147.537 20.6765 147.545 20.625 147.545Z" fill="#FAFAFA"/>
<path d="M21.5833 149.363C21.3187 149.364 21.1038 149.161 21.1033 148.91C21.1031 148.789 21.1537 148.673 21.2441 148.587L22.2024 147.678C22.3927 147.504 22.6961 147.509 22.8799 147.689C23.0593 147.865 23.0593 148.145 22.8799 148.321L21.9216 149.23C21.832 149.315 21.7103 149.363 21.5833 149.363Z" fill="#FAFAFA"/>
<path d="M23.5 150.727C23.2354 150.727 23.021 150.523 23.0212 150.272C23.0212 150.223 23.0295 150.175 23.0458 150.129L23.5249 148.765C23.599 148.524 23.8651 148.386 24.1191 148.456C24.3732 148.526 24.5191 148.779 24.4449 149.02C24.4415 149.031 24.4377 149.042 24.4334 149.053L23.9543 150.416C23.8891 150.602 23.7062 150.727 23.5 150.727Z" fill="#FAFAFA"/>
<path d="M25.4167 151.636C25.1521 151.636 24.9377 151.432 24.9379 151.181C24.9379 151.133 24.9462 151.084 24.9624 151.038L25.4416 149.674C25.5157 149.433 25.7817 149.295 26.0358 149.365C26.2899 149.436 26.4357 149.688 26.3616 149.929C26.3582 149.94 26.3544 149.951 26.3501 149.962L25.8709 151.325C25.8058 151.511 25.6228 151.636 25.4167 151.636Z" fill="#FAFAFA"/>
<path d="M34.7968 153.537C34.6693 153.452 34.5058 153.431 34.3589 153.481L32.0091 154.291C30.1262 154.939 28.1386 155.271 26.1354 155.272H23.5767C22.9179 155.274 22.2603 155.219 21.6121 155.107L18.3739 154.545C17.6686 154.423 16.9529 154.362 16.2359 154.363H12.4792C12.2146 154.363 12 154.567 12 154.818V156.636C12 157.389 12.6436 158 13.4375 158H17.2708C17.5355 158 17.75 157.796 17.75 157.545V157.091H20.4238C20.7316 157.089 21.0271 157.205 21.2441 157.412C21.6412 157.79 22.1807 158.001 22.7429 158H26.8829C28.9304 158.012 30.9641 157.683 32.8917 157.028C33.6102 156.829 34.2798 156.496 34.861 156.049C34.9505 155.963 35.0005 155.848 35 155.727V153.909C35.0001 153.761 34.9243 153.622 34.7968 153.537Z" fill="#455A64"/>
<path d="M37.2488 84H14.7512C14.0609 84 13.5013 84.5597 13.5013 85.25V90.2501C13.5013 90.9403 14.0609 91.5 14.7512 91.5C15.4415 91.5 16.0011 90.9403 16.0011 90.25H35.999C35.9989 90.9403 36.5585 91.5 37.2488 91.5C37.9391 91.5 38.4987 90.9403 38.4987 90.25V85.25C38.4987 84.5597 37.9391 84 37.2488 84Z" fill="#455A64"/>
<path d="M21.0005 84H18.5008V91.5H21.0005V84Z" fill="#546E7A"/>
<path d="M33.4992 84H30.9995V91.5H33.4992V84Z" fill="#546E7A"/>
<path d="M38.8711 100.162C38.8361 99.4731 38.249 98.9425 37.5595 98.9774C37.53 98.9789 37.5006 98.9814 37.4712 98.985C36.8453 99.0371 36.2289 98.808 35.7889 98.36C34.3625 96.8348 33.5473 94.8379 33.4992 92.75V90.25C33.4992 89.5596 32.9396 88.9999 32.2493 88.9999H19.7507C19.0604 88.9999 18.5008 89.5596 18.5008 90.25V92.7499C18.4517 94.8279 17.6445 96.8161 16.231 98.3399C15.7834 98.7987 15.1552 99.035 14.5162 98.9849C14.1731 98.9408 13.8274 99.0454 13.5662 99.2723C13.303 99.4956 13.1438 99.8176 13.1262 100.162L11.0016 142.687C10.967 143.377 11.498 143.964 12.1874 143.998C12.2087 144 12.2301 144 12.2515 144H23.5003C24.1705 144.001 24.722 143.472 24.7502 142.802L26 114.125V114.052L27.2499 142.802C27.278 143.472 27.8294 144.001 28.4998 144H39.7486C40.4389 144.001 40.9992 143.442 41 142.752C41 142.73 40.9995 142.709 40.9985 142.687L38.8711 100.162Z" fill="#546E7A"/>
<path d="M19.7507 89.0009H14.7512C14.0609 89.0009 13.5013 89.5606 13.5013 90.251V92.6885L13.1263 100.163C13.0943 100.821 13.5775 101.39 14.2312 101.466C14.3971 101.486 14.5641 101.496 14.7312 101.496C15.9104 101.476 17.0394 101.015 17.8958 100.204C19.8511 98.2116 20.9632 95.5423 21.0005 92.751V90.2508C21.0005 89.5605 20.441 89.0009 19.7507 89.0009Z" fill="#475B64"/>
<path d="M38.4987 92.75V90.25C38.4987 89.5596 37.9391 88.9999 37.2488 88.9999H32.2493C31.559 88.9999 30.9994 89.5596 30.9994 90.25V92.7499C31.0535 95.5528 32.1757 98.2291 34.1365 100.232C34.9806 101.027 36.0899 101.478 37.2487 101.5C37.4242 101.5 37.5995 101.489 37.7736 101.467C38.4233 101.387 38.9009 100.819 38.8685 100.165L38.4987 92.75Z" fill="#475B64"/>
<path d="M26 102.75C25.3097 102.75 24.7501 102.19 24.7501 101.5C24.7501 101.069 24.9721 100.668 25.3375 100.44C26.3073 99.8325 26.6223 95.1475 26.0099 90.41C25.9216 89.7225 26.4073 89.0934 27.0949 89.0051C27.7823 88.9167 28.4113 89.4025 28.4997 90.0901C28.8171 92.5477 29.6221 100.715 26.6723 102.56C26.4713 102.687 26.2377 102.753 26 102.75Z" fill="#475B64"/>
<path d="M37.0287 40.2338C34.1544 37.2736 30.1167 35.7371 26.0005 36.037C21.8878 35.7382 17.8527 37.2678 14.9724 40.2172C13.645 41.7859 13.1252 43.8834 13.5665 45.89C13.7109 46.469 14.2976 46.8213 14.8768 46.677C14.9098 46.6688 14.9424 46.6591 14.9744 46.6477C15.3581 46.5111 15.7627 46.4428 16.1699 46.4458L19.042 49.6414C22.509 53.4833 28.4354 53.7885 32.279 50.3231C32.5179 50.1078 32.7456 49.8802 32.9611 49.6414L35.8311 46.4458C36.2381 46.4415 36.6427 46.5085 37.0265 46.6436C37.5651 46.8455 38.1653 46.5729 38.3674 46.0346C38.3849 45.9882 38.3989 45.9405 38.4096 45.892C38.86 43.8939 38.3491 41.8002 37.0287 40.2338Z" fill="#455A64"/>
<path d="M13.4102 61.6283L7.80769 49.3042C7.56791 48.7816 6.94972 48.5523 6.42702 48.792C6.27608 48.8612 6.14399 48.9654 6.04158 49.0959C5.43003 49.8708 5.05211 50.8038 4.95233 51.7856L1.00744 84.8361C0.972004 85.1313 1.06446 85.4275 1.26157 85.6501C1.46122 85.8748 1.74825 86.0023 2.04885 85.9998H9.33851C9.86326 86.0045 10.3096 85.6183 10.3799 85.0984L13.504 62.1987C13.5273 62.0037 13.4948 61.8059 13.4102 61.6283Z" fill="#546E7A"/>
<path d="M47.0509 51.7878C46.9326 50.5999 46.4072 49.4894 45.5638 48.6443C45.3204 48.3958 44.9672 48.2882 44.6266 48.3591C44.2846 48.4269 43.9992 48.6614 43.8663 48.9836L38.5761 61.6617C38.5047 61.8326 38.481 62.0196 38.5074 62.203L41.6315 85.1027C41.7032 85.617 42.1431 85.9997 42.6625 86H49.9521C50.2499 86.0001 50.5334 85.8727 50.7311 85.6503C50.9312 85.429 51.0267 85.1327 50.9935 84.8363L47.0509 51.7878Z" fill="#546E7A"/>
<path d="M45.5784 48.6692C45.162 48.2291 44.6677 47.8699 44.1205 47.6095L39.705 45.4881C39.2009 45.305 38.8344 45.1446 38.5324 45.0114C38.2304 44.8782 37.9783 44.7721 37.7596 44.7012C36.993 44.4372 36.1826 44.3227 35.3728 44.364C35.0778 44.3648 34.7967 44.4895 34.598 44.7075L31.4156 48.2465C28.7205 51.2358 24.1111 51.4753 21.1205 48.7814C20.9329 48.6125 20.7544 48.434 20.5854 48.2465L17.3987 44.7075C17.201 44.4904 16.9217 44.3659 16.6282 44.364C15.8578 44.3285 15.0871 44.4293 14.3518 44.6617L14.2538 44.6887C14.0018 44.7741 13.756 44.8823 13.4603 45.0114C13.1646 45.1406 12.8022 45.305 12.1982 45.5298L7.84937 47.6116C7.13473 47.9608 6.51088 48.471 6.02693 49.1022C5.79712 49.4067 5.7524 49.8125 5.91027 50.1597L11.4212 62.284V82.877C11.4212 83.271 11.6437 83.6311 11.9961 83.8076C12.1752 83.8971 16.4928 85.9997 26.0004 85.9997C35.5081 85.9997 39.8258 83.8971 40.0048 83.8076C40.3572 83.6311 40.5797 83.271 40.5797 82.877V62.2673L45.7865 49.7766C45.9404 49.3987 45.8589 48.9656 45.5784 48.6692Z" fill="#CFD8DC"/>
<path d="M16.6281 54.7731C16.0529 54.7731 15.5867 54.307 15.5867 53.7321C15.5534 52.9242 15.3946 52.1264 15.116 51.3672C14.2273 49.2362 14.4576 46.8028 15.7304 44.8762C16.0103 44.374 16.6445 44.1937 17.1469 44.4734C17.6493 44.7531 17.8297 45.3871 17.5499 45.8892C17.5415 45.9042 17.5328 45.9191 17.5236 45.9337C16.5563 47.3579 16.3985 49.1821 17.107 50.7509C17.4496 51.709 17.6394 52.715 17.6694 53.732C17.6695 54.307 17.2033 54.7731 16.6281 54.7731Z" fill="#475B64"/>
<path d="M35.3728 54.7731C34.7977 54.7741 34.3306 54.3089 34.3296 53.734C34.3291 53.4569 34.4392 53.1909 34.6355 52.9952C35.2729 52.3582 35.0667 51.4213 34.6522 49.8183C34.108 48.3022 34.0133 46.6613 34.3794 45.0926C34.5751 44.5521 35.1722 44.2725 35.713 44.4682C36.2216 44.6522 36.5046 45.195 36.3642 45.7172C36.1402 46.9163 36.2453 48.1537 36.6683 49.2978C37.4735 50.989 37.2568 52.9893 36.108 54.469C35.9129 54.6637 35.6485 54.773 35.3728 54.7731Z" fill="#475B64"/>
<circle cx="26.5" cy="32.5" r="12.5" fill="#CCA087"/>
<path d="M32.1761 6.91945C31.7781 5.96742 31.4473 4.97374 31.1875 3.94973C31.1875 3.26328 30.5834 2.54039 30.324 2.25648C29.8549 1.69196 29.2342 1.36685 28.5834 1.34474C28.5292 1.28222 28.4459 1.15846 28.3865 1.07122C27.9539 0.235065 27.1461 -0.168143 26.3719 0.065698C26.225 0.11265 26.1018 0.237202 26.0344 0.406936C25.6521 1.36037 25.3896 1.26659 25.0302 1.14027C24.7682 1.00003 24.469 1.01926 24.2198 1.19235C24.0292 1.36337 23.9114 1.6339 23.9001 1.92697C23.8511 2.13535 23.2219 2.48574 22.9532 2.63423C22.3667 2.95984 21.8125 3.27244 21.8125 3.94325C21.5545 4.97014 21.2237 5.9662 20.824 6.91951C20.7481 7.11336 20.7539 7.34171 20.8396 7.52909C21.0751 8.03084 21.2288 8.58602 21.2917 9.16244C21.2917 9.52212 21.5249 9.81371 21.8126 9.81371H31.1876C31.4752 9.81371 31.7084 9.52212 31.7084 9.16244C31.7699 8.5862 31.9241 8.03145 32.1616 7.53171C32.2476 7.34336 32.2531 7.11385 32.1761 6.91945Z" fill="#475B64"/>
<path d="M26.5 7.85989C20.7563 7.85989 16.0834 12.9722 16.0834 19.2569C16.0834 19.6166 16.3166 19.9082 16.6042 19.9082H36.3959C36.6836 19.9082 36.9168 19.6166 36.9168 19.2569C36.9167 12.9722 32.2438 7.85989 26.5 7.85989Z" fill="#CFD8DC"/>
<path d="M38.7917 21.3839C38.5931 20.3418 37.9899 19.4937 37.1855 19.1253C33.7527 17.6273 30.1353 16.8993 26.5 16.9749C22.8661 16.8996 19.2501 17.6276 15.8188 19.1253C15.0123 19.4923 14.4073 20.3413 14.2084 21.3851C14.0746 22.0736 14.0048 22.779 14 23.4874C14.0154 24.3074 14.0883 25.1242 14.2177 25.9283C14.3212 26.6048 14.5975 27.221 15.0052 27.6841C15.2189 27.9249 15.5482 27.9036 15.7408 27.6365C15.8001 27.5543 15.8416 27.4546 15.8615 27.3468C16.0469 26.3399 21.0313 25.1442 26.4729 24.7886C31.974 25.1429 36.9626 26.3386 37.149 27.3468C37.2134 27.6973 37.4929 27.9162 37.7733 27.8356C37.8629 27.8098 37.9454 27.7549 38.0125 27.6763C38.4125 27.2102 38.6826 26.5963 38.7834 25.9244C38.9124 25.1215 38.9849 24.3061 39 23.4874C38.9953 22.7785 38.9254 22.0727 38.7917 21.3839Z" fill="#455A64"/>
<path d="M26.4729 23.4887C23.1396 23.7037 15.3208 24.4825 14.8458 27.0537C14.8045 27.2777 14.8608 27.5123 14.9937 27.6711C15.3125 28.0516 15.7054 28.321 16.1333 28.4526C19.5272 29.4833 23.0074 30.0028 26.5 30C29.9946 30.0041 33.477 29.485 36.8729 28.4539C37.3022 28.3206 37.6967 28.0515 38.0188 27.6724C38.1518 27.5136 38.208 27.279 38.1667 27.055C37.6897 24.4813 29.8678 23.7037 26.4729 23.4887Z" fill="#CCA087"/>
</svg>
