<?xml version="1.0"?>
<svg xmlns="http://www.w3.org/2000/svg" xmlns:xlink="http://www.w3.org/1999/xlink" xmlns:svgjs="http://svgjs.com/svgjs" version="1.1" width="512" height="512" x="0" y="0" viewBox="0 0 64 64" style="enable-background:new 0 0 512 512" xml:space="preserve" class=""><g><g xmlns="http://www.w3.org/2000/svg" id="hailstorm"><path d="M46,46c0-2.21-4-6-4-6s-4,3.79-4,6a4,4,0,0,0,8,0Z" style="" fill="#7e9fed" data-original="#78b9eb" class=""/><path d="M36,57c0-2.21-4-6-4-6s-4,3.79-4,6a4,4,0,0,0,8,0Z" style="" fill="#7e9fed" data-original="#78b9eb" class=""/><path d="M26,46c0-2.21-4-6-4-6s-4,3.79-4,6a4,4,0,0,0,8,0Z" style="" fill="#7e9fed" data-original="#78b9eb" class=""/><path d="M16,57c0-2.21-4-6-4-6s-4,3.79-4,6a4,4,0,0,0,8,0Z" style="" fill="#7e9fed" data-original="#78b9eb" class=""/><path d="M56,57c0-2.21-4-6-4-6s-4,3.79-4,6a4,4,0,0,0,8,0Z" style="" fill="#7e9fed" data-original="#78b9eb" class=""/><path d="M61.08,23.71A13.29,13.29,0,0,0,47.79,10.42c-.42,0-.83.02-1.24.06a15.7,15.7,0,0,0-27.74,2.3A10.867,10.867,0,0,0,8.09,31.65,18.333,18.333,0,0,0,21.03,37H49v-.06A13.289,13.289,0,0,0,61.08,23.71Z" style="" fill="#7e9fed" data-original="#78b9eb" class=""/><path d="M47.792,9.417q-.368,0-.729.021a16.7,16.7,0,0,0-28.748,2.023A11.866,11.866,0,0,0,7.462,32.431,19.191,19.191,0,0,0,21.026,38H49a.908.908,0,0,0,.408-.1A14.289,14.289,0,0,0,47.792,9.417ZM48.91,35.943a.916.916,0,0,0-.243.057H21.026A17.2,17.2,0,0,1,8.8,30.94a1.019,1.019,0,0,0-.166-.133,9.869,9.869,0,0,1,3.524-18.018,10.023,10.023,0,0,1,1.8-.163,9.815,9.815,0,0,1,4.411,1.047,1,1,0,0,0,1.369-.506,14.7,14.7,0,0,1,25.975-2.152,1,1,0,0,0,.936.46c.378-.035.76-.058,1.148-.058A12.288,12.288,0,0,1,48.91,35.943Z" style="" fill="#417aff" data-original="#1a6fb0" class=""/><path d="M33.208,6.083a1,1,0,0,0,0,2,10.664,10.664,0,0,1,9.039,4.991A1,1,0,1,0,43.936,12,12.656,12.656,0,0,0,33.208,6.083Z" style="" fill="#417aff" data-original="#1a6fb0" class=""/><path d="M17.386,15.378a7.786,7.786,0,0,0-3.511-.836,7.869,7.869,0,0,0-4.245,14.5l.27.173.228.227a1,1,0,0,0,1.412-1.417l-.3-.3a.994.994,0,0,0-.164-.133l-.361-.232a5.865,5.865,0,0,1,5.779-10.191,1,1,0,0,0,.895-1.789Z" style="" fill="#417aff" data-original="#1a6fb0" class=""/><path d="M32.688,50.274a1,1,0,0,0-1.376,0C30.592,50.957,27,54.488,27,57a5,5,0,0,0,10,0C37,54.488,33.408,50.957,32.688,50.274ZM32,60a3,3,0,0,1-3-3c0-1.049,1.583-3.106,3-4.587,1.417,1.48,3,3.536,3,4.587A3,3,0,0,1,32,60Z" style="" fill="#417aff" data-original="#1a6fb0" class=""/><path d="M52.688,50.274a1,1,0,0,0-1.376,0C50.592,50.957,47,54.488,47,57a5,5,0,0,0,10,0C57,54.488,53.408,50.957,52.688,50.274ZM52,60a3,3,0,0,1-3-3c0-1.049,1.583-3.106,3-4.587,1.417,1.48,3,3.536,3,4.587A3,3,0,0,1,52,60Z" style="" fill="#417aff" data-original="#1a6fb0" class=""/><path d="M12.688,50.274a1,1,0,0,0-1.376,0C10.592,50.957,7,54.488,7,57a5,5,0,0,0,10,0C17,54.488,13.408,50.957,12.688,50.274ZM12,60a3,3,0,0,1-3-3c0-1.049,1.583-3.106,3-4.587,1.417,1.48,3,3.536,3,4.587A3,3,0,0,1,12,60Z" style="" fill="#417aff" data-original="#1a6fb0" class=""/><path d="M22.688,39.274a1,1,0,0,0-1.376,0C20.592,39.957,17,43.488,17,46a5,5,0,0,0,10,0C27,43.488,23.408,39.957,22.688,39.274ZM22,49a3,3,0,0,1-3-3c0-1.049,1.583-3.106,3-4.587,1.417,1.48,3,3.536,3,4.587A3,3,0,0,1,22,49Z" style="" fill="#417aff" data-original="#1a6fb0" class=""/><path d="M42.688,39.274a1,1,0,0,0-1.376,0C40.592,39.957,37,43.488,37,46a5,5,0,0,0,10,0C47,43.488,43.408,39.957,42.688,39.274ZM42,49a3,3,0,0,1-3-3c0-1.049,1.583-3.106,3-4.587,1.417,1.48,3,3.536,3,4.587A3,3,0,0,1,42,49Z" style="" fill="#417aff" data-original="#1a6fb0" class=""/></g></g></svg>
