<?xml version="1.0"?>
<svg xmlns="http://www.w3.org/2000/svg" xmlns:xlink="http://www.w3.org/1999/xlink" xmlns:svgjs="http://svgjs.com/svgjs" version="1.1" width="512" height="512" x="0" y="0" viewBox="0 0 64 64" style="enable-background:new 0 0 512 512" xml:space="preserve" class=""><g><g xmlns="http://www.w3.org/2000/svg" id="raining"><path d="M47.79,13.42c-.42,0-.83.02-1.24.06a15.7,15.7,0,0,0-27.74,2.3A10.867,10.867,0,0,0,8.09,34.65,18.333,18.333,0,0,0,21.03,40H49v-.06a13.287,13.287,0,0,0-1.21-26.52Z" style="" fill="#7e9fed" data-original="#78b9eb" class=""/><path d="M47.792,12.417q-.368,0-.729.021a16.7,16.7,0,0,0-28.748,2.023A11.866,11.866,0,0,0,7.462,35.431,19.191,19.191,0,0,0,21.026,41H49a.908.908,0,0,0,.408-.1,14.289,14.289,0,0,0-1.616-28.486ZM48.91,38.943a.916.916,0,0,0-.243.057H21.026A17.2,17.2,0,0,1,8.8,33.94a1.019,1.019,0,0,0-.166-.133,9.869,9.869,0,0,1,3.524-18.018,10.023,10.023,0,0,1,1.8-.163,9.815,9.815,0,0,1,4.411,1.047,1,1,0,0,0,1.369-.506,14.7,14.7,0,0,1,25.975-2.152.994.994,0,0,0,.936.46c.378-.035.76-.058,1.148-.058A12.288,12.288,0,0,1,48.91,38.943Z" style="" fill="#417aff" data-original="#1a6fb0" class=""/><path d="M33.208,9.083a1,1,0,0,0,0,2,10.664,10.664,0,0,1,9.039,4.991A1,1,0,1,0,43.936,15,12.656,12.656,0,0,0,33.208,9.083Z" style="" fill="#417aff" data-original="#1a6fb0" class=""/><path d="M17.386,18.378a7.786,7.786,0,0,0-3.511-.836,7.869,7.869,0,0,0-4.245,14.5l.27.173.228.227a1,1,0,0,0,1.412-1.417l-.3-.3a.994.994,0,0,0-.164-.133l-.361-.232a5.865,5.865,0,0,1,5.779-10.191,1,1,0,0,0,.895-1.789Z" style="" fill="#417aff" data-original="#1a6fb0" class=""/><path d="M19.394,43.081a1,1,0,0,0-1.313.525l-6,14a1,1,0,1,0,1.838.788l6-14A1,1,0,0,0,19.394,43.081Z" style="" fill="#417aff" data-original="#1a6fb0" class=""/><path d="M25.394,43.081a1,1,0,0,0-1.313.525l-6,14a1,1,0,1,0,1.838.788l6-14A1,1,0,0,0,25.394,43.081Z" style="" fill="#417aff" data-original="#1a6fb0" class=""/><path d="M31.394,43.081a1,1,0,0,0-1.313.525l-6,14a1,1,0,1,0,1.838.788l6-14A1,1,0,0,0,31.394,43.081Z" style="" fill="#417aff" data-original="#1a6fb0" class=""/><path d="M37.394,43.081a1,1,0,0,0-1.313.525l-6,14a1,1,0,1,0,1.838.788l6-14A1,1,0,0,0,37.394,43.081Z" style="" fill="#417aff" data-original="#1a6fb0" class=""/><path d="M43.394,43.081a1,1,0,0,0-1.313.525l-6,14a1,1,0,1,0,1.838.788l6-14A1,1,0,0,0,43.394,43.081Z" style="" fill="#417aff" data-original="#1a6fb0" class=""/><path d="M49.394,43.081a1,1,0,0,0-1.313.525l-6,14a1,1,0,1,0,1.838.788l6-14A1,1,0,0,0,49.394,43.081Z" style="" fill="#417aff" data-original="#1a6fb0" class=""/></g></g></svg>
