<?xml version="1.0"?>
<svg xmlns="http://www.w3.org/2000/svg" xmlns:xlink="http://www.w3.org/1999/xlink" xmlns:svgjs="http://svgjs.com/svgjs" version="1.1" width="512" height="512" x="0" y="0" viewBox="0 0 64 64" style="enable-background:new 0 0 512 512" xml:space="preserve" class=""><g><g xmlns="http://www.w3.org/2000/svg" id="sun"><circle cx="32" cy="32" r="21" style="" fill="#edf375" data-original="#78b9eb" class=""/><path d="M32,10A22,22,0,1,0,54,32,22.025,22.025,0,0,0,32,10Zm0,42A20,20,0,1,1,52,32,20.023,20.023,0,0,1,32,52Z" style="" fill="#d9e139" data-original="#1a6fb0" class=""/><path d="M32,8a1,1,0,0,0,1-1V3a1,1,0,0,0-2,0V7A1,1,0,0,0,32,8Z" style="" fill="#d9e139" data-original="#1a6fb0" class=""/><path d="M24.563,8.111a1,1,0,0,0,.965.742,1.016,1.016,0,0,0,.26-.035A1,1,0,0,0,26.5,7.593L25.46,3.729a1,1,0,0,0-1.932.518Z" style="" fill="#d9e139" data-original="#1a6fb0" class=""/><path d="M18.634,10.849a1,1,0,1,0,1.732-1l-2-3.464a1,1,0,0,0-1.732,1Z" style="" fill="#d9e139" data-original="#1a6fb0" class=""/><path d="M13.615,15.029a1,1,0,0,0,1.414-1.414L12.2,10.787A1,1,0,1,0,10.787,12.2Z" style="" fill="#d9e139" data-original="#1a6fb0" class=""/><path d="M6.386,18.366l3.464,2a1,1,0,1,0,1-1.732l-3.464-2a1,1,0,0,0-1,1.732Z" style="" fill="#d9e139" data-original="#1a6fb0" class=""/><path d="M3.729,25.46,7.593,26.5a.974.974,0,0,0,.26.035,1,1,0,0,0,.257-1.967L4.247,23.528a1,1,0,1,0-.518,1.932Z" style="" fill="#d9e139" data-original="#1a6fb0" class=""/><path d="M7,33a1,1,0,0,0,0-2H3a1,1,0,0,0,0,2Z" style="" fill="#d9e139" data-original="#1a6fb0" class=""/><path d="M8.817,38.212a1,1,0,0,0-1.224-.707L3.729,38.54a1,1,0,0,0,.258,1.966,1.015,1.015,0,0,0,.26-.034L8.11,39.437A1,1,0,0,0,8.817,38.212Z" style="" fill="#d9e139" data-original="#1a6fb0" class=""/><path d="M11.216,44a1,1,0,0,0-1.366-.366l-3.464,2a1,1,0,1,0,1,1.732l3.464-2A1,1,0,0,0,11.216,44Z" style="" fill="#d9e139" data-original="#1a6fb0" class=""/><path d="M13.615,48.971,10.787,51.8A1,1,0,1,0,12.2,53.213l2.828-2.828a1,1,0,0,0-1.414-1.414Z" style="" fill="#d9e139" data-original="#1a6fb0" class=""/><path d="M20,52.785a1,1,0,0,0-1.366.366l-2,3.464a1,1,0,1,0,1.732,1l2-3.464A1,1,0,0,0,20,52.785Z" style="" fill="#d9e139" data-original="#1a6fb0" class=""/><path d="M25.788,55.182a1,1,0,0,0-1.225.707l-1.035,3.864a1,1,0,0,0,.707,1.225,1.015,1.015,0,0,0,.26.034,1,1,0,0,0,.965-.741L26.5,56.407A1,1,0,0,0,25.788,55.182Z" style="" fill="#d9e139" data-original="#1a6fb0" class=""/><path d="M32,56a1,1,0,0,0-1,1v4a1,1,0,0,0,2,0V57A1,1,0,0,0,32,56Z" style="" fill="#d9e139" data-original="#1a6fb0" class=""/><path d="M39.437,55.889a1,1,0,0,0-1.932.518l1.035,3.864a1,1,0,0,0,.965.741,1.015,1.015,0,0,0,.26-.034,1,1,0,0,0,.707-1.225Z" style="" fill="#d9e139" data-original="#1a6fb0" class=""/><path d="M45.366,53.151a1,1,0,0,0-1.732,1l2,3.464a1,1,0,0,0,1.732-1Z" style="" fill="#d9e139" data-original="#1a6fb0" class=""/><path d="M50.385,48.971a1,1,0,0,0-1.414,1.414L51.8,53.213A1,1,0,0,0,53.213,51.8Z" style="" fill="#d9e139" data-original="#1a6fb0" class=""/><path d="M57.614,45.634l-3.464-2a1,1,0,1,0-1,1.732l3.464,2a1,1,0,0,0,1-1.732Z" style="" fill="#d9e139" data-original="#1a6fb0" class=""/><path d="M60.271,38.54l-3.864-1.035a1,1,0,0,0-.517,1.932l3.863,1.035a1.015,1.015,0,0,0,.26.034,1,1,0,0,0,.258-1.966Z" style="" fill="#d9e139" data-original="#1a6fb0" class=""/><path d="M61,31H57a1,1,0,0,0,0,2h4a1,1,0,0,0,0-2Z" style="" fill="#d9e139" data-original="#1a6fb0" class=""/><path d="M55.183,25.788a1,1,0,0,0,.964.742.974.974,0,0,0,.26-.035l3.864-1.035a1,1,0,1,0-.518-1.932L55.89,24.563A1,1,0,0,0,55.183,25.788Z" style="" fill="#d9e139" data-original="#1a6fb0" class=""/><path d="M52.784,20a1,1,0,0,0,1.366.366l3.464-2a1,1,0,0,0-1-1.732l-3.464,2A1,1,0,0,0,52.784,20Z" style="" fill="#d9e139" data-original="#1a6fb0" class=""/><path d="M49.678,15.322a1,1,0,0,0,.707-.293L53.213,12.2A1,1,0,1,0,51.8,10.787l-2.828,2.828a1,1,0,0,0,.707,1.707Z" style="" fill="#d9e139" data-original="#1a6fb0" class=""/><path d="M44,11.215a1,1,0,0,0,1.366-.366l2-3.464a1,1,0,0,0-1.732-1l-2,3.464A1,1,0,0,0,44,11.215Z" style="" fill="#d9e139" data-original="#1a6fb0" class=""/><path d="M38.212,8.818a1.016,1.016,0,0,0,.26.035,1,1,0,0,0,.965-.742l1.035-3.864a1,1,0,1,0-1.932-.518L37.505,7.593A1,1,0,0,0,38.212,8.818Z" style="" fill="#d9e139" data-original="#1a6fb0" class=""/></g></g></svg>
