<svg width="53" height="144" viewBox="0 0 53 144" fill="none" xmlns="http://www.w3.org/2000/svg">
<path d="M41 52.6101L47.9734 52L50.5445 81.3877C50.7129 83.3134 49.2885 85.011 47.3628 85.1795C45.4372 85.3479 43.7396 83.9235 43.5711 81.9978L41 52.6101Z" fill="#CCA087"/>
<path d="M30.7192 104.699L38.6754 103.862L41.7067 132.703C41.9376 134.9 40.3438 136.869 38.1467 137.1C35.9497 137.331 33.9815 135.737 33.7505 133.54L30.7192 104.699Z" fill="#CCA087" fill-opacity="0.88"/>
<path d="M12.8651 104.072L21.8431 104.699L19.8551 133.13C19.6817 135.609 17.5314 137.478 15.0521 137.305C12.5729 137.132 10.7036 134.981 10.877 132.502L12.8651 104.072Z" fill="#CCA087" fill-opacity="0.88"/>
<path d="M4.46167 50.9387L11.4095 51.7918L7.81435 81.0719C7.57877 82.9905 5.83248 84.3548 3.91389 84.1193C1.9953 83.8837 0.630951 82.1374 0.866524 80.2188L4.46167 50.9387Z" fill="#CCA087"/>
<circle cx="25.5" cy="19.5" r="12.5" fill="#CCA087"/>
<path d="M41.7865 13.3104C41.7096 13.2544 41.6257 13.2074 41.5368 13.1704C41.2111 13.0189 40.8525 12.9412 40.4893 12.9435C38.7157 13.0489 37.0062 13.6072 35.5439 14.5583C35.2497 14.7276 35.157 15.0896 35.3368 15.3667C35.3625 15.4063 35.3931 15.4428 35.4278 15.4756L35.6775 15.7109C36.4404 16.4424 39.0485 18.8264 40.4918 18.8264C42.2709 18.8264 42.9888 16.7506 42.9888 15.8861C43.0784 14.8909 42.6256 13.9209 41.7865 13.3104Z" fill="#546E7A"/>
<path d="M41.6129 13.2104L35.8448 9.51742C35.7417 9.45116 35.62 9.41554 35.4952 9.4151C31.681 9.4151 22.291 11.6015 18.4706 13.3774C17.9146 13.6027 17.4011 13.9113 16.9499 14.2912C16.7192 14.5085 16.7051 14.8565 16.9174 15.0898C17.0997 15.2897 21.427 20 26.0815 20C29.1603 20 31.721 18.3688 34.1968 16.7916C34.8685 16.3647 35.5314 15.9413 36.1944 15.5614C37.4532 14.7093 38.942 14.2095 40.4893 14.1195C40.662 14.1161 40.8331 14.1512 40.9887 14.2218C41.3028 14.3556 41.6726 14.2241 41.8146 13.9281C41.9365 13.6741 41.8523 13.3744 41.6129 13.2104Z" fill="#CFD8DC"/>
<path d="M22.6056 0.851939C22.5248 0.54641 22.2028 0.355054 21.8753 0.417957C19.589 0.755958 17.4499 1.69338 15.7026 3.12301C13.8125 4.95381 12.8379 7.45527 13.0221 10.0032C13.0363 11.64 13.253 13.2697 13.6675 14.8593C13.7404 15.1166 13.9878 15.2956 14.2706 15.2957H17.3918C17.5575 15.2959 17.7165 15.2342 17.8338 15.1239C18.185 14.8387 18.582 14.6077 19.0099 14.4394C19.2969 14.31 19.4345 13.9979 19.3295 13.715C17.7739 9.51392 17.5815 6.29027 18.7539 4.13563C19.4646 2.86555 20.7045 1.93149 22.1761 1.5576C22.4968 1.46862 22.6861 1.15752 22.6056 0.851939Z" fill="#607D8B"/>
<path d="M36.092 9.83148L34.0682 3.61698C33.6775 2.43517 32.7465 1.47966 31.5299 1.01194C28.4294 -0.0939665 25.0481 -0.298774 21.8227 0.423867C20.0204 0.886957 18.5048 2.03751 17.6415 3.59818C16.3056 6.05035 16.4754 9.58456 18.1497 14.1031C18.2078 14.2629 18.3361 14.3914 18.5017 14.4559C18.6675 14.5197 18.8545 14.5132 19.0149 14.4383C22.6493 12.7471 31.8895 10.5913 35.4952 10.5913C35.84 10.5912 36.1194 10.3278 36.1192 10.003C36.1192 9.94483 36.11 9.88705 36.092 9.83148Z" fill="#2196F3"/>
<path d="M44.3493 34.3968C40.9978 31.7618 33.8259 30.1037 33.5218 30.035C32.9609 29.9072 32.4027 30.2584 32.2751 30.8192C32.2579 30.8947 32.2492 30.9719 32.2491 31.0493C32.2491 32.4554 29.3641 34.1739 26.0001 34.1739C22.6361 34.1739 19.7511 32.4554 19.7511 31.0493C19.7513 30.7324 19.6072 30.4326 19.3595 30.2349C19.1146 30.0313 18.7885 29.9542 18.4784 30.0267C18.1742 30.0954 11.0045 31.7556 7.64677 34.3885C4.17857 37.1255 3.19122 50.3151 3.08704 51.8087C3.05853 52.2331 3.29111 52.6323 3.67445 52.8168C6.12152 53.95 8.73771 54.6747 11.419 54.9623V76.8755C11.4197 77.2606 11.6328 77.6139 11.9731 77.7941C12.1419 77.8858 16.2308 80 26.0001 80C35.7695 80 39.8584 77.8858 40.0271 77.7941C40.3674 77.6139 40.5805 77.2606 40.5812 76.8755V54.9623C43.2619 54.6745 45.8773 53.9497 48.3237 52.8168C48.7079 52.6328 48.9413 52.2336 48.9132 51.8087C48.809 50.3151 47.8217 37.1255 44.3493 34.3968Z" fill="#03A9F4"/>
<path d="M12.4605 55.0039C11.8853 55.0039 11.419 54.5376 11.419 53.9624V47.7134C11.5041 45.7226 10.8731 43.7672 9.64008 42.2018C9.24054 41.7881 9.25196 41.1287 9.66567 40.7291C10.0693 40.3393 10.7092 40.3393 11.1127 40.7291C12.7545 42.6764 13.6069 45.1684 13.5019 47.7134V53.9624C13.5021 54.5376 13.0357 55.0039 12.4605 55.0039Z" fill="#0288D1"/>
<path d="M39.5395 55.004C38.9643 55.004 38.498 54.5376 38.498 53.9624V47.7134C38.3919 45.168 39.2436 42.6752 40.8851 40.727C41.2848 40.3133 41.9441 40.3018 42.3579 40.7014C42.7716 41.1011 42.783 41.7603 42.3834 42.1741C42.375 42.1828 42.3665 42.1913 42.3579 42.1997C41.1251 43.766 40.4948 45.7222 40.5811 47.7134V53.9624C40.5811 54.5376 40.1148 55.004 39.5395 55.004Z" fill="#0288D1"/>
<path d="M33.9529 30.2474C33.715 30.0478 33.3995 29.9667 33.0948 30.0267C30.7512 30.5019 28.3824 30.8433 26.0001 31.0494C23.6177 30.8434 21.249 30.502 18.9054 30.0267C18.6007 29.967 18.2853 30.0481 18.0473 30.2474C17.8077 30.4448 17.6687 30.7389 17.6681 31.0493C17.6681 34.1738 21.9757 36.2568 26.0001 36.2568C30.0245 36.2568 34.3321 34.1738 34.3321 31.0493C34.3316 30.7389 34.1926 30.4448 33.9529 30.2474Z" fill="#1976D2"/>
<g opacity="0.7">
<path d="M49.9875 137.818C49.1761 137.619 48.3918 137.306 47.6542 136.886L43.25 134.327C42.2333 133.754 40.9917 133.978 40.1992 134.879C39.6293 135.531 38.8242 135.875 38 135.818C37.1042 135.893 36.233 135.476 35.6767 134.706C35.4072 134.265 34.953 134 34.4667 134H33.4167C33.1866 134 33 134.204 33 134.455V138.091C33 138.342 33.1866 138.545 33.4167 138.545C35.0275 138.545 36.3334 139.97 36.3334 141.727C36.3334 141.978 36.52 142.182 36.7501 142.182H46.7501C46.8926 142.182 47.0253 142.102 47.1017 141.971C48.0126 140.406 49.3384 138.718 49.8917 138.718C50.1219 138.717 50.3075 138.512 50.3064 138.261C50.3054 138.052 50.1739 137.871 49.9876 137.822V137.818H49.9875Z" fill="#2196F3"/>
<path d="M49.9858 137.818C49.955 137.81 49.9234 137.806 49.8917 137.806C48.635 137.806 46.9 140.619 46.3983 141.481C46.275 141.693 46.3325 141.974 46.5268 142.108C46.5935 142.155 46.671 142.179 46.75 142.179H52.5833C52.8125 142.179 52.9986 141.977 53 141.727C52.9072 139.837 51.6774 138.242 49.9858 137.818Z" fill="#607D8B"/>
<path d="M33.4167 137.636C33.1866 137.636 33 137.84 33 138.091V141.727C33 141.978 33.1866 142.182 33.4167 142.182H36.75C36.9801 142.182 37.1667 141.978 37.1667 141.727C37.1667 139.468 35.4878 137.636 33.4167 137.636Z" fill="#607D8B"/>
<path d="M42.5833 137.182C42.3532 137.182 42.1668 136.978 42.1669 136.727C42.1669 136.638 42.1912 136.55 42.2367 136.475L43.07 135.112C43.1977 134.903 43.4564 134.847 43.6479 134.986C43.8394 135.125 43.891 135.407 43.7633 135.616L42.93 136.98C42.8526 137.106 42.7226 137.182 42.5833 137.182Z" fill="#FAFAFA"/>
<path d="M44.25 138.091C44.0199 138.091 43.8335 137.887 43.8336 137.636C43.8336 137.547 43.8579 137.459 43.9034 137.385L44.7367 136.021C44.8644 135.812 45.1231 135.756 45.3146 135.895C45.506 136.034 45.5577 136.317 45.43 136.525L44.5967 137.889C44.5193 138.015 44.3893 138.091 44.25 138.091Z" fill="#FAFAFA"/>
<path d="M45.9167 139C45.6866 139 45.5001 138.796 45.5002 138.545C45.5003 138.456 45.5246 138.368 45.57 138.294L46.4033 136.93C46.5311 136.721 46.7898 136.665 46.9813 136.804C47.1727 136.943 47.2244 137.226 47.0967 137.435L46.2634 138.798C46.1859 138.924 46.0559 139 45.9167 139Z" fill="#FAFAFA"/>
<path d="M53 141.273H33V142.636C33 143.389 33.5597 144 34.25 144H51.75C52.4404 144 53 143.389 53 142.636V141.273Z" fill="#CFD8DC"/>
</g>
<path d="M26.9875 137.818C26.1761 137.619 25.3918 137.306 24.6542 136.886L20.25 134.327C19.2333 133.754 17.9917 133.978 17.1992 134.879C16.6293 135.531 15.8242 135.875 15 135.818C14.1042 135.893 13.233 135.476 12.6767 134.706C12.4072 134.265 11.953 134 11.4667 134H10.4167C10.1866 134 10 134.204 10 134.455V138.091C10 138.342 10.1866 138.545 10.4167 138.545C12.0275 138.545 13.3334 139.97 13.3334 141.727C13.3334 141.978 13.52 142.182 13.7501 142.182H23.7501C23.8926 142.182 24.0253 142.102 24.1017 141.971C25.0126 140.406 26.3384 138.718 26.8917 138.718C27.1219 138.717 27.3075 138.512 27.3064 138.261C27.3054 138.052 27.1739 137.871 26.9876 137.822V137.818H26.9875Z" fill="#2196F3"/>
<path d="M26.9858 137.818C26.955 137.81 26.9234 137.806 26.8917 137.806C25.635 137.806 23.9 140.619 23.3983 141.481C23.275 141.693 23.3325 141.974 23.5268 142.108C23.5935 142.155 23.671 142.179 23.75 142.179H29.5833C29.8125 142.179 29.9986 141.977 30 141.727C29.9072 139.837 28.6774 138.242 26.9858 137.818Z" fill="#607D8B"/>
<path d="M10.4167 137.636C10.1866 137.636 10 137.84 10 138.091V141.727C10 141.978 10.1866 142.182 10.4167 142.182H13.75C13.9801 142.182 14.1667 141.978 14.1667 141.727C14.1667 139.468 12.4878 137.636 10.4167 137.636Z" fill="#607D8B"/>
<path d="M30 141.273H10V142.636C10 143.389 10.5597 144 11.25 144H28.75C29.4404 144 30 143.389 30 142.636V141.273Z" fill="#CFD8DC"/>
<path d="M41.9964 106.991L39.6307 81.75H12.3715L10.0035 106.991C9.9784 107.252 10.0881 107.507 10.3052 107.7C10.5224 107.891 10.8264 108 11.1441 108H22.5406C23.1211 108 23.608 107.644 23.6766 107.171L26.0011 90.8831L28.328 107.173C28.3942 107.644 28.8834 108 29.4639 108H40.8581C41.1781 108 41.4798 107.891 41.697 107.7C41.9141 107.509 42.0215 107.252 41.9964 106.991Z" fill="#2196F3"/>
<path d="M39.6307 81.75H31.8113L32.0148 82.83C32.0376 82.9519 32.6113 85.8506 35.4182 87.3919C36.5382 88.005 37.8319 88.3125 39.2856 88.3125C39.5941 88.3125 39.9164 88.2881 40.2387 88.2619L39.6307 81.75Z" fill="#1E88E5"/>
<path d="M12.3715 81.75L11.7635 88.2413C12.1864 88.2881 12.6001 88.3125 13.0001 88.3125C14.4538 88.3125 15.7475 88.005 16.8698 87.39C19.6789 85.8506 20.2503 82.9519 20.2732 82.8281L20.4766 81.75H12.3715Z" fill="#1E88E5"/>
<path d="M38.5724 78H13.4298C12.7989 78 12.2869 78.42 12.2869 78.9375V81.75H39.7153V78.9375C39.7153 78.42 39.2033 78 38.5724 78Z" fill="#64B5F6"/>
</svg>
