<?xml version="1.0"?>
<svg xmlns="http://www.w3.org/2000/svg" xmlns:xlink="http://www.w3.org/1999/xlink" xmlns:svgjs="http://svgjs.com/svgjs" version="1.1" width="512" height="512" x="0" y="0" viewBox="0 0 64 64" style="enable-background:new 0 0 512 512" xml:space="preserve" class=""><g><g xmlns="http://www.w3.org/2000/svg" id="thunder"><path d="M49.33,10.5a13.637,13.637,0,0,0-2.78-.02,15.7,15.7,0,0,0-27.74,2.3A10.867,10.867,0,0,0,8.09,31.65,18.333,18.333,0,0,0,21.03,37H32l.32.11L34.09,32H23.36l1.91-3.07,6.85-11L30.48,28H41l-1.78,3.03-3.43,5.85L36,37H49v-.06A13.366,13.366,0,0,0,60.05,18.41,12.815,12.815,0,0,0,49.33,10.5Z" style="" fill="#7e9fed" data-original="#78b9eb" class=""/><path d="M21.178,44H15.2l.921-5.618a1,1,0,0,0-1.836-.69L8.308,47.507A1,1,0,0,0,9.178,49h5.888L11.044,60.4a1,1,0,0,0,1.806.839l9.2-15.748A1,1,0,0,0,21.178,44Zm-4.784,7.251,1.029-2.918A1,1,0,0,0,16.479,47H10.893l2.447-4-.3,1.839A1,1,0,0,0,14.025,46h5.437Z" style="" fill="#417aff" data-original="#1a6fb0" class=""/><path d="M60.984,18.049a13.737,13.737,0,0,0-11.548-8.54,15.247,15.247,0,0,0-2.374-.07,16.7,16.7,0,0,0-28.749,2.023A11.867,11.867,0,0,0,7.459,32.432,19.2,19.2,0,0,0,21.03,38h9.92L26.542,50.7a1,1,0,0,0,1.807.834L36.291,38h9.6a.978.978,0,0,0-.018.382L46.8,44H40.822a1,1,0,0,0-.87,1.493l9.2,15.748a1,1,0,0,0,1.806-.839L46.934,49h5.888a1,1,0,0,0,.87-1.493L47.905,38H49a.916.916,0,0,0,.406-.1A14.361,14.361,0,0,0,59.95,31.216,14.658,14.658,0,0,0,60.984,18.049ZM48.66,43l2.446,4H45.521a1,1,0,0,0-.944,1.333l1.03,2.918L42.538,46h5.437a1,1,0,0,0,.987-1.162ZM35.035,32.328A1,1,0,0,0,34.091,31H25.156l5.175-8.314L29.5,27.84A1,1,0,0,0,30.483,29h8.771l-7.5,12.777ZM58.25,30.164a12.35,12.35,0,0,1-9.34,5.78.913.913,0,0,0-.24.056h-11.2l4.4-7.494A1,1,0,0,0,41,27H31.658L33.1,18.086a1,1,0,0,0-1.836-.688L22.508,31.472A1,1,0,0,0,23.356,33h9.33l-1.042,3H21.03A17.216,17.216,0,0,1,8.8,30.942a1,1,0,0,0-.165-.133,9.865,9.865,0,0,1,9.731-17.135,1,1,0,0,0,1.369-.506,14.7,14.7,0,0,1,25.974-2.153,1,1,0,0,0,.941.46,12.735,12.735,0,0,1,2.584.023,11.747,11.747,0,0,1,9.891,7.278A12.517,12.517,0,0,1,58.25,30.164Z" style="" fill="#417aff" data-original="#1a6fb0" class=""/><path d="M33.209,6.083a1,1,0,0,0,0,2,10.663,10.663,0,0,1,9.038,4.992A1,1,0,0,0,43.937,12,12.66,12.66,0,0,0,33.209,6.083Z" style="" fill="#417aff" data-original="#1a6fb0" class=""/><path d="M17.386,15.378a7.789,7.789,0,0,0-3.511-.836,7.869,7.869,0,0,0-4.244,14.5l.269.173.228.227a1,1,0,0,0,1.412-1.417l-.3-.3a.961.961,0,0,0-.165-.133l-.36-.232a5.865,5.865,0,0,1,5.779-10.191,1,1,0,0,0,.895-1.789Z" style="" fill="#417aff" data-original="#1a6fb0" class=""/></g></g></svg>
